<svg width="413" height="175" viewBox="0 0 413 175" fill="none" xmlns="http://www.w3.org/2000/svg">
<path d="M410.104 61.324C408.351 54.881 404.195 49.505 398.403 46.19C394.626 44.026 390.334 42.883 385.99 42.883C377.095 42.883 368.823 47.648 364.363 55.328C361.258 45.27 352.198 38.264 341.674 37.768L341.996 31.588C342.345 24.919 340.074 18.513 335.604 13.551C331.134 8.59 325 5.666 318.362 5.32C304.508 4.575 292.779 15.244 292.064 28.982L291.894 32.233C290.846 32.162 289.799 32.127 288.758 32.127C277.82 32.127 267.478 35.845 258.886 42.257C257.795 29.509 246.937 19.369 234.014 19.369C233.773 19.369 233.533 19.372 233.339 19.378C226.664 19.549 220.454 22.31 215.855 27.15C212.467 30.715 210.257 35.096 209.393 39.823C203.07 35.955 195.92 33.486 188.294 32.816L188.629 29.568C190.045 15.856 180.041 3.548 166.328 2.131C165.474 2.043 164.606 1.998 163.749 1.998C150.899 1.998 140.214 11.642 138.893 24.431L137.867 34.368C133.939 33.152 120.55 30.769 109.072 43.04C89.98 25.869 76.318 39.488 72.417 39.28C65.229 23.62 56.479 17.514 38.283 17.514C36.624 17.514 34.955 17.556 33.325 17.885C26.78 19.206 21.14 22.935 17.446 28.498C13.752 34.061 12.445 40.698 13.766 47.244L13.873 47.761C4.91699 53.297 0.0919893 64.161 2.70999 74.936C5.13599 84.914 13.273 92.218 23.157 93.737L30.424 129.739C32.77 141.36 43.071 149.792 54.919 149.792C56.579 149.792 58.248 149.625 59.879 149.296C69.061 147.441 76.049 140.742 78.733 132.401C87.418 139.853 97.787 143.76 109.172 143.76C119.373 143.76 129.174 140.505 137.671 134.325C141.609 137.955 146.588 140.215 152.01 140.774C156.072 141.196 160.174 140.588 163.865 139.101C170.333 142.176 177.347 143.769 184.599 143.769C185.191 143.769 185.789 143.758 186.393 143.736C195.069 143.412 203.257 140.813 210.446 136.244C213.467 148.362 224.439 157.37 237.48 157.37C249.986 157.37 260.593 149.087 264.106 137.72C267.992 139.706 272.187 141.188 276.642 142.056C279.454 142.604 282.446 142.87 285.79 142.87C290.385 142.87 294.974 142.203 299.415 140.909C302.88 143.014 306.867 144.288 311.068 144.507C311.506 144.53 311.945 144.541 312.381 144.541C313.49 144.541 314.581 144.462 315.653 144.322C315.263 147.498 315.489 150.75 316.354 153.93C318.107 160.374 322.263 165.749 328.053 169.064C331.83 171.228 336.123 172.372 340.468 172.372C349.415 172.372 357.733 167.551 362.174 159.79L407.674 80.305C410.994 74.509 411.856 67.769 410.104 61.324Z" fill="white"/>
<path fill-rule="evenodd" clip-rule="evenodd" d="M136.904 24.2255C138.33 10.4179 149.873 -0.0019989 163.749 -0.0019989C164.675 -0.0019989 165.612 0.0465857 166.533 0.141535L166.534 0.141593C181.345 1.67211 192.148 14.9626 190.618 29.7734L190.488 31.0425C196.749 31.8506 202.671 33.8255 208.068 36.7514C209.258 32.6829 211.406 28.9287 214.405 25.7723C219.368 20.5492 226.079 17.5647 233.282 17.3788C233.502 17.3721 233.761 17.369 234.014 17.369C246.844 17.369 257.768 26.5975 260.382 38.7665C268.732 33.2756 278.484 30.127 288.758 30.127C289.171 30.127 289.586 30.1323 290.001 30.1429L290.067 28.878C290.067 28.8779 290.067 28.8777 290.067 28.8776C290.839 14.0427 303.504 2.51885 318.468 3.32281C325.636 3.69697 332.266 6.85874 337.09 12.2122L335.604 13.551L337.09 12.2124C341.915 17.5682 344.37 24.4931 343.993 31.6921C343.993 31.6922 343.993 31.6924 343.993 31.6925L343.772 35.9389C352.97 37.0568 360.902 42.8013 364.848 51.0819C369.923 44.7084 377.705 40.883 385.99 40.883C390.683 40.883 395.318 42.1175 399.397 44.4546C405.65 48.0334 410.142 53.8449 412.034 60.7989L412.034 60.7994C413.925 67.7559 412.993 75.0421 409.41 81.2986M409.409 81.2991L363.91 160.783C363.91 160.783 363.91 160.783 363.91 160.784C359.112 169.168 350.132 174.372 340.468 174.372C335.774 174.372 331.138 173.137 327.059 170.8C320.809 167.221 316.316 161.41 314.424 154.455C313.711 151.834 313.4 149.164 313.481 146.517C313.117 146.533 312.75 146.541 312.381 146.541C311.912 146.541 311.438 146.529 310.963 146.504C306.729 146.283 302.698 145.071 299.139 143.065C294.781 144.256 290.29 144.87 285.79 144.87C282.339 144.87 279.216 144.595 276.26 144.019C272.39 143.265 268.709 142.067 265.248 140.492C260.865 151.536 250.075 159.37 237.48 159.37C224.431 159.37 213.323 150.96 209.266 139.284C202.34 143.202 194.608 145.431 186.468 145.735L186.466 145.735C185.838 145.758 185.216 145.769 184.599 145.769C177.342 145.769 170.308 144.236 163.79 141.272C160.021 142.647 155.897 143.188 151.805 142.763C146.504 142.217 141.587 140.161 137.544 136.862C129.023 142.686 119.291 145.76 109.172 145.76C98.241 145.76 88.1947 142.298 79.6144 135.695C76.1862 143.427 69.1914 149.455 60.275 151.256L60.2745 151.257C58.5137 151.612 56.7122 151.792 54.919 151.792C42.1183 151.792 30.9978 142.688 28.4635 130.135L30.424 129.739L28.4635 130.135L21.4651 95.4632C11.4195 93.3779 3.27134 85.7103 0.766613 75.4085L0.766539 75.4082C-1.94628 64.2429 2.73845 52.9988 11.6536 46.8243C10.4918 40.0224 11.9465 33.1646 15.7799 27.3916C19.7737 21.3771 25.8757 17.3482 32.9293 15.9245C34.7693 15.5531 36.6099 15.514 38.283 15.514C47.59 15.514 54.7605 17.0731 60.5679 20.8476C66.0076 24.383 70.0274 29.7172 73.5348 36.9608C73.5482 36.9554 73.5618 36.9499 73.5755 36.9444C74.1092 36.7273 74.7067 36.4493 75.4275 36.1138C75.6907 35.9914 75.9702 35.8613 76.2691 35.7238C78.4312 34.7287 81.2772 33.4997 84.6633 32.8362C91.2532 31.545 99.5595 32.4613 108.963 40.2995C119.147 30.4564 130.464 30.7776 136.113 31.8782L136.904 24.2256L138.893 24.431L136.904 24.2255M163.749 3.998C151.925 3.998 142.098 12.8661 140.882 24.6365L139.856 34.5734C139.795 35.1694 139.469 35.7064 138.969 36.0367C138.47 36.367 137.848 36.4557 137.276 36.2785C133.716 35.1766 121.27 32.9272 110.533 44.4062C109.788 45.2018 108.545 45.2555 107.735 44.527C98.6411 36.3485 91.0858 35.6538 85.4324 36.7616C82.529 37.3305 80.0348 38.394 77.9414 39.3574C77.6926 39.4719 77.4439 39.5877 77.1977 39.7023C76.4445 40.0528 75.7154 40.3922 75.0825 40.6496C74.3038 40.9663 73.2899 41.3294 72.3105 41.2772C71.5684 41.2376 70.9094 40.7898 70.5993 40.1143C67.0853 32.4584 63.3042 27.3966 58.3881 24.2014C53.4745 21.0079 47.172 19.514 38.283 19.514C36.6381 19.514 35.1407 19.5589 33.7207 19.8455L33.325 17.885L33.7207 19.8455C27.6843 21.0638 22.5063 24.4929 19.1121 29.6044C15.7116 34.7253 14.5113 40.8204 15.7255 46.8436C15.7258 46.8452 15.7262 46.8468 15.7265 46.8484L15.8315 47.3557C16.0018 48.1787 15.6395 49.0203 14.9246 49.4622C6.68104 54.5578 2.24648 64.5568 4.65338 74.4635C6.88624 83.6471 14.3703 90.3632 23.4608 91.7602C24.29 91.8876 24.9515 92.519 25.1175 93.3413L32.3845 129.343C34.5422 140.032 44.0237 147.792 54.919 147.792C56.4458 147.792 57.9823 147.638 59.4835 147.335C67.9241 145.63 74.3568 139.472 76.8291 131.788C77.0343 131.151 77.545 130.658 78.1896 130.476C78.8342 130.294 79.5271 130.447 80.0354 130.883C88.3652 138.03 98.2744 141.76 109.172 141.76C118.935 141.76 128.327 138.648 136.495 132.708C137.266 132.147 138.325 132.208 139.027 132.854C142.647 136.191 147.222 138.27 152.215 138.785L152.217 138.785C155.948 139.172 159.723 138.613 163.118 137.246C163.636 137.037 164.219 137.055 164.724 137.295C170.923 140.242 177.644 141.769 184.599 141.769C185.166 141.769 185.739 141.758 186.318 141.737C194.636 141.427 202.48 138.937 209.373 134.556C209.916 134.211 210.591 134.148 211.188 134.387C211.785 134.625 212.231 135.136 212.387 135.76C215.191 147.011 225.381 155.37 237.48 155.37C249.082 155.37 258.933 147.684 262.195 137.129C262.37 136.565 262.784 136.107 263.328 135.877C263.873 135.648 264.49 135.67 265.016 135.939C268.741 137.843 272.759 139.262 277.024 140.093C279.692 140.613 282.554 140.87 285.79 140.87C290.192 140.87 294.592 140.231 298.856 138.989C299.394 138.832 299.974 138.908 300.453 139.2C303.643 141.137 307.31 142.308 311.172 142.51L311.173 142.51C311.574 142.531 311.978 142.541 312.381 142.541C313.395 142.541 314.399 142.469 315.394 142.339C316.007 142.259 316.623 142.467 317.062 142.902C317.501 143.338 317.713 143.952 317.638 144.566C317.28 147.484 317.487 150.475 318.284 153.405C319.898 159.338 323.717 164.277 329.047 167.328L329.047 167.329C332.522 169.32 336.473 170.372 340.468 170.372C348.698 170.372 356.354 165.935 360.438 158.797L360.438 158.796L405.938 79.3114L405.939 79.3109C408.995 73.9755 409.787 67.7819 408.174 61.8486C406.56 55.9171 402.741 50.977 397.41 47.9258L397.409 47.9254C393.934 45.9345 389.985 44.883 385.99 44.883C377.808 44.883 370.195 49.2688 366.093 56.3324C365.694 57.0193 364.926 57.405 364.137 57.3152C363.348 57.2253 362.686 56.6769 362.452 55.9179C359.596 46.6673 351.264 40.2222 341.58 39.7658C341.048 39.7407 340.549 39.5049 340.191 39.1104C339.834 38.7159 339.649 38.1954 339.677 37.6639L339.999 31.4839L339.999 31.4835C340.32 25.3446 338.233 19.4577 334.118 14.8898C330.002 10.3217 324.365 7.63561 318.258 7.31729L318.255 7.31712C305.512 6.63187 294.719 16.4455 294.061 29.0859V29.0864L293.891 32.3374C293.863 32.8725 293.622 33.3739 293.221 33.7294C292.82 34.0849 292.293 34.2646 291.759 34.2284C290.756 34.1605 289.754 34.127 288.758 34.127C278.282 34.127 268.354 37.6868 260.082 43.8599C259.5 44.2941 258.729 44.3789 258.067 44.0814C257.404 43.7839 256.955 43.1509 256.893 42.4275C255.89 30.7019 245.886 21.369 234.014 21.369C233.787 21.369 233.568 21.3719 233.401 21.377L233.39 21.3773C227.246 21.5348 221.539 24.0721 217.305 28.5277L217.305 28.5278C214.184 31.811 212.154 35.8383 211.36 40.1826C211.242 40.8312 210.811 41.3796 210.209 41.6488C209.608 41.9179 208.912 41.8731 208.349 41.5291C202.277 37.8146 195.423 35.45 188.119 34.8083C187.585 34.7614 187.093 34.5025 186.752 34.0894C186.411 33.6763 186.25 33.1437 186.305 32.6108L186.64 29.3628L186.64 29.3626C187.942 16.7496 178.737 5.42423 166.123 4.12047M163.749 3.998C164.537 3.998 165.336 4.0394 166.122 4.12041Z" fill="#78D5F4"/>
<path d="M285.98 115.646C299.051 115.646 309.647 103.384 309.647 88.258C309.647 73.132 299.051 60.87 285.98 60.87C272.909 60.87 262.313 73.132 262.313 88.258C262.313 103.384 272.909 115.646 285.98 115.646Z" fill="white"/>
<path d="M285.776 102.358C289.479 102.358 292.48 99.3565 292.48 95.654C292.48 91.9515 289.479 88.95 285.776 88.95C282.073 88.95 279.072 91.9515 279.072 95.654C279.072 99.3565 282.073 102.358 285.776 102.358Z" fill="black"/>
<path d="M184.98 116.646C198.051 116.646 208.647 104.384 208.647 89.258C208.647 74.132 198.051 61.87 184.98 61.87C171.909 61.87 161.313 74.132 161.313 89.258C161.313 104.384 171.909 116.646 184.98 116.646Z" fill="white"/>
<path d="M185.862 103.018C189.458 103.018 192.373 100.103 192.373 96.507C192.373 92.9111 189.458 89.996 185.862 89.996C182.266 89.996 179.351 92.9111 179.351 96.507C179.351 100.103 182.266 103.018 185.862 103.018Z" fill="black"/>
<path d="M133.273 49.998L132.357 50H131.613C125.736 50 121 54.199 121 60.369V96.93C121 98.399 120.828 100.054 120.025 101.851C116.383 107.664 112.543 108.554 109.431 108.597C107.328 108.445 106.309 108.229 105.913 108.124C99.67 105.755 97 101.867 97 95.165V59.612C97 56.093 94.947 51.593 88.989 50.1L88.093 50H87.106C81.585 50 77.441 53.941 77.003 59.785L77 59.944V95.921C77 103.269 79.159 109.955 83.455 115.793L83.585 115.983L83.732 116.165C90.678 124.522 99.237 128.759 109.173 128.759C116.856 128.759 123.97 126.172 130.32 121.07L130.623 120.827L131.084 120.556C138.204 113.598 141.999 105.776 141.999 97.308V59.738C142 54.788 138.383 50.957 133.273 49.998Z" fill="#69D0F3"/>
<path d="M70.771 58.384C69.466 53.018 64.063 49.728 58.692 51.029L50.638 52.987L48.075 40.288C46.982 34.874 41.706 31.371 36.294 32.464C30.88 33.557 27.377 38.831 28.47 44.245L31.189 57.715L24.641 59.306C19.274 60.611 15.981 66.018 17.286 71.385C18.398 75.958 22.489 79.026 26.995 79.026C27.777 79.026 28.571 78.933 29.365 78.741L35.15 77.335L45.128 126.77C46.086 131.516 50.257 134.793 54.92 134.793C55.576 134.793 56.242 134.728 56.909 134.593C62.323 133.5 65.826 128.226 64.733 122.812L54.598 72.606L63.415 70.463C68.782 69.159 72.075 63.751 70.771 58.384Z" fill="#69D0F3"/>
<path d="M220.539 86.845C219.699 64.398 202.957 46.907 182.797 47.654C178.795 47.804 174.974 48.689 171.422 50.172L173.709 28.028C174.276 22.534 170.283 17.621 164.789 17.053C159.295 16.486 154.382 20.479 153.814 25.973L144.633 114.879C144.066 120.373 148.059 125.286 153.553 125.854C153.903 125.89 154.249 125.908 154.593 125.908C158.179 125.908 161.397 123.98 163.161 121.029C169.184 125.907 176.591 128.77 184.599 128.77C185.008 128.77 185.421 128.762 185.832 128.747C195.799 128.374 204.915 123.612 211.498 115.337C217.723 107.511 220.934 97.393 220.539 86.845ZM195.846 102.885C192.952 106.523 189.13 108.609 185.083 108.76C176.168 109.124 168.495 100.018 168.075 88.808C167.651 77.471 174.59 67.975 183.544 67.64C183.706 67.634 183.867 67.631 184.028 67.631C192.728 67.631 200.14 76.586 200.551 87.593C200.769 93.367 199.098 98.798 195.846 102.885Z" fill="#333333"/>
<path d="M317.55 20.297C312.062 20 307.33 24.247 307.043 29.762L305.884 51.978C302.604 49.969 298.966 48.507 295.034 47.741C292.969 47.339 290.857 47.126 288.758 47.126C271.064 47.126 255.475 61.197 251.692 80.608C247.415 102.567 259.895 123.573 279.513 127.397C281.576 127.799 283.688 128 285.787 128H285.79C291.935 128 297.824 126.241 303.055 123.219C304.437 126.775 307.795 129.348 311.853 129.559C312.03 129.569 312.207 129.557 312.382 129.557C317.665 129.557 322.081 125.408 322.36 120.07L327.016 30.808C327.304 25.293 323.065 20.585 317.55 20.297ZM285.789 108.008C284.97 108.008 284.144 107.928 283.338 107.771C274.543 106.057 269.153 95.603 271.322 84.469C273.247 74.593 280.743 67.144 288.758 67.144C289.576 67.144 290.401 67.224 291.208 67.381C300.003 69.095 305.394 79.548 303.224 90.684C301.299 100.561 293.804 108.008 285.789 108.008Z" fill="#333333"/>
<path d="M235.475 112.87C235.562 112.87 235.649 112.869 235.736 112.867C241.257 112.725 245.619 108.135 245.477 102.614L243.977 44.114C243.835 38.593 239.214 34.215 233.724 34.374C228.203 34.516 223.841 39.106 223.983 44.627L225.483 103.127C225.622 108.56 230.07 112.87 235.475 112.87Z" fill="#333333"/>
<path d="M237.479 116.646C230.386 116.646 224.617 122.416 224.617 129.508C224.617 136.6 230.387 142.37 237.479 142.37C244.571 142.37 250.341 136.6 250.341 129.508C250.341 122.416 244.572 116.646 237.479 116.646Z" fill="#333333"/>
<path d="M390.947 59.206C386.156 56.462 380.044 58.124 377.301 62.917L358.863 95.125L350.182 60.302C348.845 54.943 343.413 51.683 338.06 53.018C332.702 54.354 329.44 59.781 330.776 65.14L343.776 117.289C343.997 118.176 344.334 119.003 344.759 119.764L331.8 142.403C329.056 147.196 330.718 153.306 335.511 156.049C337.077 156.946 338.784 157.372 340.469 157.372C343.939 157.372 347.311 155.564 349.157 152.338L394.657 72.852C397.402 68.059 395.74 61.949 390.947 59.206Z" fill="#333333"/>
</svg>
